<svg xmlns="http://www.w3.org/2000/svg" version="1.1" viewBox="-5.0 -10.0 110.0 135.0">
 <path d="m14.027 70.223v-15.859h5.2266v15.859zm18.285 0v-35.277h-5.2266v35.277zm13.059 0v-22.277h-5.2266v22.277zm13.059 0v-21.246h-5.2227v21.246zm15.609 15.062-4.0703-2.3555-0.875-0.50391-7.2461 12.551c-0.42969 0.74219-0.54297 1.6055-0.32031 2.4375 0.22266 0.83594 0.75391 1.5312 1.4961 1.957 0.74219 0.42969 1.6055 0.53906 2.4375 0.32031 0.83594-0.22266 1.5312-0.75391 1.957-1.4961l7.2461-12.551-0.58594-0.33984c-0.011719-0.007813-0.027344-0.007813-0.039063-0.019532zm-0.65625-6.3945-1.3828 2.3867 2.2031 1.2734 1.3789-2.3867c-0.37891-0.1875-0.75391-0.38281-1.1211-0.59766-0.37109-0.21094-0.72656-0.4375-1.0781-0.67578zm24.266-7.3281c-2.1445 3.7188-5.6094 6.3789-9.7617 7.4922-4.1484 1.1133-8.4844 0.54297-12.203-1.6055-2.7188-1.5703-4.8672-3.8438-6.2656-6.5781-0.003907-0.007813-0.007813-0.011719-0.011719-0.015625-0.51172-1.0039-0.92188-2.0625-1.2188-3.1758-1.1133-4.1484-0.53906-8.4844 1.6055-12.203 2.9766-5.1562 8.3945-8.0391 13.957-8.0391 2.7266 0 5.4883 0.69531 8.0156 2.1523 7.6797 4.4375 10.316 14.293 5.8828 21.973zm-1.9453-8.0195c0-4.1445-2.1484-8.1797-5.9883-10.395-1.8828-1.0898-3.9414-1.6055-5.9727-1.6055-4.1445 0-8.1797 2.1484-10.398 5.9883-3.3008 5.7227-1.332 13.066 4.3867 16.367 2.7734 1.6055 6.0039 2.0312 9.0938 1.2031 3.0898-0.82812 5.6758-2.8125 7.2734-5.5859 1.0898-1.8828 1.6055-3.9414 1.6055-5.9727zm-3.8828-54.859h-91.621v-5.7383c0-1.5156 1.2383-2.75 2.7578-2.75h86.105c1.5195 0 2.7578 1.2344 2.7578 2.75zm-81.719-4.2461c0-0.87891-0.71094-1.5859-1.5859-1.5859-0.87891 0-1.5898 0.70703-1.5898 1.5859 0 0.875 0.71094 1.5859 1.5898 1.5859 0.875 0 1.5859-0.71094 1.5859-1.5859zm7.2031 0c0-0.87891-0.70703-1.5859-1.5859-1.5859-0.875 0-1.5859 0.70703-1.5859 1.5859 0 0.875 0.71094 1.5859 1.5859 1.5859 0.87891 0 1.5859-0.71094 1.5859-1.5859zm7.2109 0c0-0.87891-0.71094-1.5859-1.5898-1.5859-0.875 0-1.5859 0.70703-1.5859 1.5859 0 0.875 0.71094 1.5859 1.5859 1.5859s1.5898-0.71094 1.5898-1.5859zm43.277 75.445h-64.836c-1.5195 0-2.7539-1.2344-2.7539-2.75l-0.003906-66.004h91.617v35.723c-8.6562-4.2109-19.258-1.0586-24.145 7.4023-2.4727 4.2852-3.1328 9.2773-1.8516 14.059 0.17188 0.65234 0.38281 1.2852 0.625 1.9062h-5.5742l0.003906-22.469c0-0.67578-0.54688-1.2227-1.2227-1.2227h-7.6719c-0.67578 0-1.2227 0.54688-1.2227 1.2227v22.473h-2.9375v-23.5c0-0.67578-0.55078-1.2266-1.2266-1.2266h-7.6719c-0.67578 0-1.2227 0.55078-1.2227 1.2266v23.5h-2.9375l-0.003907-36.5c0-0.67578-0.55078-1.2227-1.2266-1.2227h-7.6719c-0.67578 0-1.2266 0.54688-1.2266 1.2227v36.5h-2.9375l0.003907-17.082c0-0.67578-0.54688-1.2227-1.2266-1.2227l-7.668-0.003907c-0.67578 0-1.2266 0.54688-1.2266 1.2227v17.086h-3.5273v-51.719c0-0.67578-0.54688-1.2227-1.2227-1.2227-0.67969 0-1.2266 0.54688-1.2266 1.2227v52.941c0 0.67578 0.54688 1.2266 1.2266 1.2266h60.773c1.0039 1.7734 2.2891 3.3633 3.8203 4.7188l-1.4453 2.4961h-0.39453l-0.32812-0.1875c-0.28125-0.16406-0.61719-0.20703-0.92969-0.12109-0.20312 0.050781-0.38281 0.16016-0.53125 0.30469zm-14.891-49.863c0 7.6875 6.2578 13.941 13.945 13.941 7.2734 0 13.262-5.6016 13.883-12.715h1.207c0.67578 0 1.2227-0.55078 1.2227-1.2266 0-8.9961-7.3164-16.312-16.312-16.312-0.67578 0-1.2227 0.54688-1.2227 1.2227v1.1992c-7.1172 0.62109-12.723 6.6133-12.723 13.891zm13.949 11.492c5.9258 0 10.816-4.5039 11.43-10.27h-11.43c-0.67578 0-1.2227-0.55078-1.2227-1.2266v-11.43c-5.7695 0.61328-10.277 5.5078-10.277 11.434 0 6.3359 5.1602 11.492 11.5 11.492zm1.2227-25.305v12.59h12.586c-0.58203-6.6719-5.9141-12.004-12.586-12.59zm15.648 41.523c4.6406 0 8.8203 2.0312 10.645 5.1719 0.21875 0.37891 0.22266 0.84766 0.003906 1.2305-1.8242 3.1484-6.0039 5.1797-10.648 5.1797-4.6406 0-8.8164-2.0312-10.641-5.1797-0.21875-0.37891-0.21875-0.84766 0-1.2305 1.8281-3.1406 6.0039-5.1719 10.641-5.1719zm-5.25 5.7891c0-0.89062 0.22266-1.7344 0.61719-2.4688-1.4531 0.58203-2.6719 1.4336-3.4766 2.4688 0.80469 1.0352 2.0234 1.8867 3.4766 2.4727-0.39453-0.73828-0.61719-1.5781-0.61719-2.4727zm10.5 0c0 0.89453-0.22266 1.7383-0.62109 2.4766 1.457-0.58594 2.6797-1.4375 3.4844-2.4766-0.80469-1.0352-2.0273-1.8867-3.4805-2.4727 0.39062 0.73828 0.61719 1.5781 0.61719 2.4727zm-5.25-2.8047c-1.5469 0-2.8008 1.2578-2.8008 2.8047 0 1.5508 1.2578 2.8086 2.8008 2.8086 1.5469 0 2.8008-1.2578 2.8008-2.8086 0-1.5469-1.2578-2.8047-2.8008-2.8047z"/>
</svg>