<svg xmlns="http://www.w3.org/2000/svg" version="1.1" viewBox="-5.0 -10.0 110.0 135.0">
 <path d="m30.676 66.16c-2.8516-1.332-5.7344-2.8984-8.4648-4.5977 0.36328 2.3281 0.85547 4.6445 1.4844 6.8516 2.2305-0.55859 4.5742-1.3125 6.9805-2.2539zm16.453-21.633c0.29297 4.2227 0.24219 8.6055-0.15234 12.777-1.9219 1.3672-3.9805 2.6914-6.1562 3.9453v0.003906c-2.5664 1.4805-5.1328 2.7734-7.6523 3.875-3.8516-1.6797-7.7188-3.7773-11.316-6.1211-0.62891-5.2891-0.6875-10.953-0.17969-16.312 3.5742-2.543 7.5156-4.8555 11.488-6.7617 4.9219 2.3477 9.7617 5.3164 13.969 8.5938zm-11.645-9.6523c3.9766 2.0078 7.8984 4.4141 11.414 7.0078-0.37109-3.5195-1.0039-7.0195-1.9336-10.305-2.9922 0.75781-6.1914 1.8594-9.4805 3.2969zm-11.949-2.6992c-0.66016 2.4336-1.1875 5.0898-1.5586 7.918 2.8359-1.918 5.8164-3.6719 8.8828-5.2188-2.4102-1.0508-4.8672-1.9648-7.3242-2.6992zm-3.8125 25.383c-0.41797-4.3516-0.46875-8.9023-0.15234-13.305-2.7539 2.1133-5.3789 4.4609-7.625 6.9375 2.2422 2.1641 4.8555 4.3164 7.7773 6.3672zm25.098 11.352c0.80469-2.7227 1.4375-5.75 1.8672-9.0039-1.5508 1.0508-3.1758 2.0703-4.8711 3.0508v-0.003906c-1.9023 1.1172-4.2539 2.3203-6.1445 3.2031 2.9922 1.1719 6.1055 2.1367 9.1484 2.7539zm4.3867-22.699c0.14844 3.1641 0.10938 6.4062-0.11719 9.5352 1.8789-1.4453 3.6523-2.9531 5.3086-4.5547-1.5039-1.6641-3.2461-3.3359-5.1914-4.9805zm-6.5391-27.172c-1.4688-1.4688-3.9922-0.42578-3.9922 1.6523s2.5234 3.1211 3.9922 1.6523c0.91406-0.91016 0.91406-2.3945 0-3.3047zm-5.3789-0.52344c-2 3.418 1.332 7.5273 5.0977 6.2656 0.73828 1.4648 1.4102 3.1133 2.0039 4.9141-3.5352 0.89844-7.332 2.2578-11.215 4.0586-2.9883-1.3828-6.0352-2.5664-9.0898-3.4727 0.39062-1.2383 0.8125-2.4062 1.2695-3.4961 2.6797-6.3945 7.0391-11.258 11.934-8.2695zm28.023 23.227c0.54297-2.0195-1.6406-3.668-3.4336-2.6328-1.7852 1.0312-1.4531 3.7461 0.56641 4.2891 1.2539 0.33203 2.5312-0.40234 2.8672-1.6562zm-2.2344-4.918c0.14844-5.7461-6.2461-7.082-13.133-6.2031-0.98437 0.125-2.0078 0.30078-3.0586 0.51953 1.1016 3.9141 1.8047 8.1484 2.1484 12.383 2.5742 2.0547 4.8438 4.1719 6.7578 6.2734 1.7617-1.8359 3.2461-3.6641 4.4023-5.4297-2.1914-1.9375-1.8633-5.4805 0.70703-6.9648 0.6875-0.39844 1.4375-0.58203 2.1758-0.57812zm-3.8281 30.414c0.31641-0.31641 0.58984-0.66797 0.80469-1.043 1.7109-2.9648 0.26562-7.4688-3.4531-12.355-0.28906-0.38281-0.59375-0.76562-0.91016-1.1484-2.0977 2.0156-4.3828 3.9102-6.8359 5.6992-0.42188 3.9414-1.1367 7.6133-2.082 10.871 1.9336 0.29297 3.7383 0.41406 5.3672 0.35547 0.64453-3.2852 4.625-4.6094 7.1094-2.3789zm-0.89453 1.9609c0.44531 0.71094 0.49219 1.6367 0.042969 2.4141-0.32422 0.55859-0.84375 0.93359-1.4219 1.0898-2.0469 0.54688-3.6523-1.6641-2.6367-3.4297 0.64453-1.1133 2.0508-1.5039 3.1953-0.85938 0.47266 0.26563 0.56641 0.46875 0.82031 0.78516zm-32.363 11.762c1.4688 1.4688 3.9922 0.42578 3.9922-1.6523s-2.5234-3.1211-3.9922-1.6523c-0.91406 0.91016-0.91406 2.3906 0 3.3047zm5.3789 0.52344c2-3.418-1.332-7.5273-5.0977-6.2656-0.73828-1.4648-1.4102-3.1094-2.0039-4.9141 2.8281-0.71875 5.8242-1.7344 8.8945-3.0312 3.6055 1.5234 7.3672 2.7695 11.051 3.5312-0.28906 0.83984-0.59375 1.6484-0.91406 2.4141-2.6758 6.3906-7.0312 11.254-11.93 8.2656zm-25.785-18.309c-0.027344 1.0703 0.17578 2.0977 0.70312 3.0117h0.003907c2.332 4.043 9.5469 3.9102 15.488 2.6758-0.78906-2.8008-1.3672-5.7461-1.7578-8.7109-3.5469-2.375-6.7031-4.9102-9.3633-7.4648-0.82422 0.99609-1.5547 1.9844-2.1914 2.9531 2.1914 1.9453 1.8594 5.4844-0.69922 6.9609-0.69531 0.39453-1.4453 0.57813-2.1836 0.57422zm6.0977-35.879c-0.57812 0.15625-1.0977 0.53125-1.4219 1.0898-1.0234 1.7773 0.59766 3.9766 2.6367 3.4297 0.57812-0.15625 1.0977-0.53125 1.4219-1.0898h0.003907c1.0273-1.7891-0.61719-3.9727-2.6406-3.4297zm4.7812 3.332c-0.09375 0.35938-0.24609 0.74609-0.44531 1.082h0.003907c-1.8594 3.2227-6.6562 2.7148-7.8242-0.80078-1.8438 0.51172-3.332 1.375-4.2695 2.9609-1.6484 2.9648-0.19922 7.4375 3.4922 12.289 0.91016 1.1992 1.957 2.4141 3.125 3.6328 2.6953-2.9609 5.8906-5.7266 9.2539-8.1797 0.38281-3.582 1.0078-6.9414 1.8281-9.9688-1.8008-0.46484-3.5312-0.80469-5.1641-1.0156zm-12.926 29.34c-0.28906-0.54297-0.34375-1.1523-0.19531-1.7109 0.53906-2.0078 3.2539-2.3594 4.2891-0.56641 1.0352 1.7891-0.61328 3.9727-2.6328 3.4336-0.55859-0.14844-1.0586-0.5-1.3828-1.0195-0.019532-0.046875-0.046876-0.09375-0.078126-0.13672zm90.152-24.371c-4.6055-2.1133-12.227-2.1133-16.832 0-4.0625 1.8672-4.0625 4.3672 0 6.2305 4.6055 2.1133 12.227 2.1133 16.832 0 4.0586-1.8633 4.0586-4.3672 0-6.2305zm3.0508 10.641c0 1.1445-1.168 2.25-3.0508 3.1172-4.6055 2.1133-12.227 2.1133-16.832 0-1.8867-0.86719-3.0508-1.9727-3.0508-3.1172v-3.8242c5.207 4.1172 17.727 4.1172 22.934 0zm0 7.5234v-3.8203c-5.207 4.1172-17.727 4.1172-22.934 0v3.8203c0 1.1445 1.168 2.25 3.0508 3.1172 4.6055 2.1133 12.227 2.1133 16.832 0 1.8828-0.86719 3.0508-1.9727 3.0508-3.1172zm0 7.5234c0 1.1445-1.168 2.25-3.0508 3.1172-4.6055 2.1133-12.227 2.1133-16.832 0-1.8867-0.86719-3.0508-1.9727-3.0508-3.1172v-3.8203c5.207 4.1172 17.727 4.1172 22.934 0zm-19.465-15.52c-0.64844 0-1.1758 0.5-1.1758 1.1172 0 0.61719 0.52734 1.1172 1.1758 1.1172 0.64844 0 1.1758-0.5 1.1758-1.1172 0-0.61719-0.52734-1.1172-1.1758-1.1172zm0 7.4922c0.64844 0 1.1758 0.5 1.1758 1.1172s-0.52734 1.1172-1.1758 1.1172c-0.64844 0-1.1758-0.5-1.1758-1.1172s0.52734-1.1172 1.1758-1.1172zm0 7.5391c-0.64844 0-1.1758 0.5-1.1758 1.1172 0 0.61719 0.52734 1.1172 1.1758 1.1172 0.64844 0 1.1758-0.5 1.1758-1.1172 0-0.61328-0.52734-1.1172-1.1758-1.1172zm-43.934-45.082v-7.2188c0-1.4336 1.168-2.6016 2.6016-2.6016h47.719c1.4336 0 2.6016 1.168 2.6016 2.6016l-0.011719 13.145c1.3594 0.41797 2.3477 1.6836 2.3477 3.1797 0 1.8359-1.4883 3.3242-3.3242 3.3242-1.8359 0-3.3242-1.4883-3.3242-3.3242 0-1.4961 0.98828-2.7617 2.3477-3.1797l-0.011719-13.145c0-0.34375-0.28125-0.625-0.625-0.625h-47.723c-0.34375 0-0.625 0.28125-0.625 0.625v7.2227c-0.65625-0.09375-1.3203-0.09375-1.9727-0.003906zm1.9727 68.57c-0.65234 0.089844-1.3164 0.089844-1.9727-0.003906v7.2227c0 1.4336 1.168 2.6016 2.6016 2.6016h47.719c1.4336 0 2.6016-1.168 2.6016-2.6016l-0.011719-13.145c1.3594-0.41797 2.3477-1.6836 2.3477-3.1797 0-1.8359-1.4883-3.3242-3.3242-3.3242-1.8359 0-3.3242 1.4883-3.3242 3.3242 0 1.4961 0.98828 2.7617 2.3477 3.1797l-0.011719 13.145c0 0.34375-0.28125 0.625-0.625 0.625h-47.723c-0.34375 0-0.625-0.28125-0.625-0.625l0.003906-7.2188z" fill-rule="evenodd"/>
</svg>