<svg xmlns="http://www.w3.org/2000/svg" viewBox="0 0 64 80" x="0px" y="0px"><g data-name="Layer 33"><path d="M25,22h6v3.586l-1.293-1.293-1.414,1.414,3,3a1,1,0,0,0,1.414,0l3-3-1.414-1.414L33,25.586V22h6a1,1,0,0,0,1-1V9a1,1,0,0,0-.293-.707l-6-6A1,1,0,0,0,33,2H25a1,1,0,0,0-1,1V21A1,1,0,0,0,25,22ZM26,4h6V9a1,1,0,0,0,1,1h5V20H26Z"/><rect x="28" y="12" width="8" height="2"/><rect x="28" y="16" width="8" height="2"/><path d="M61.707,8.293l-6-6A1,1,0,0,0,55,2H47a1,1,0,0,0-1,1V21a1,1,0,0,0,1,1h6V38H44.414l1.293-1.293-1.414-1.414-3,3a1,1,0,0,0,0,1.414l3,3,1.414-1.414L44.414,40H54a1,1,0,0,0,1-1V22h6a1,1,0,0,0,1-1V9A1,1,0,0,0,61.707,8.293ZM48,20V4h6V9a1,1,0,0,0,1,1h5V20Z"/><rect x="50" y="12" width="8" height="2"/><rect x="50" y="16" width="8" height="2"/><rect x="6" y="12" width="8" height="2"/><rect x="6" y="16" width="8" height="2"/><path d="M43,54H21a1,1,0,0,0-1,1v6a1,1,0,0,0,1,1H43a1,1,0,0,0,1-1V55A1,1,0,0,0,43,54Z"/><path d="M35.707,50.707l-1.414-1.414L33,50.586V47h1a1,1,0,0,0,1-1v-.681a7.063,7.063,0,0,0,.974-.56l.588.34a1.011,1.011,0,0,0,.759.1,1,1,0,0,0,.608-.466l2-3.464a1,1,0,0,0-.367-1.367l-.586-.338c.016-.189.024-.376.024-.563s-.008-.374-.024-.563l.586-.338a1,1,0,0,0,.367-1.367l-2-3.464a1,1,0,0,0-1.367-.367l-.588.34a7.063,7.063,0,0,0-.974-.56V32a1,1,0,0,0-1-1H30a1,1,0,0,0-1,1v.681a7.063,7.063,0,0,0-.974.56l-.589-.34a1,1,0,0,0-1.366.367l-2,3.464a1,1,0,0,0,.367,1.367l.586.338c-.016.189-.024.376-.024.563s.008.374.024.563l-.586.338a1,1,0,0,0-.367,1.367l2,3.464a1,1,0,0,0,1.366.367l.589-.34a7.063,7.063,0,0,0,.974.56V46a1,1,0,0,0,1,1h1v3.586l-1.293-1.293-1.414,1.414,3,3a1,1,0,0,0,1.414,0ZM32,41a2,2,0,1,1,2-2A2,2,0,0,1,32,41Z"/><path d="M22.707,38.293l-3-3-1.414,1.414L19.586,38H11V22h6a1,1,0,0,0,1-1V9a1,1,0,0,0-.293-.707l-6-6A1,1,0,0,0,11,2H3A1,1,0,0,0,2,3V21a1,1,0,0,0,1,1H9V39a1,1,0,0,0,1,1h9.586l-1.293,1.293,1.414,1.414,3-3A1,1,0,0,0,22.707,38.293ZM4,4h6V9a1,1,0,0,0,1,1h5V20H4Z"/></g></svg>