<svg xmlns="http://www.w3.org/2000/svg" version="1.1" viewBox="-5.0 -10.0 110.0 135.0">
 <path d="m42.188 23.438v4.6875h-3.125v-3.125h-6.25c-0.85938 0-1.5625-0.70312-1.5625-1.5625v-4.9688c-1.8125-0.65625-3.125-2.375-3.125-4.4062 0-2.5781 2.1094-4.6875 4.6875-4.6875s4.6875 2.1094 4.6875 4.6875c0 2.0312-1.3125 3.75-3.125 4.4062v3.4062h6.25c0.85938 0 1.5625 0.70312 1.5625 1.5625zm25-14.062c-2.5781 0-4.6875 2.1094-4.6875 4.6875 0 2.0312 1.3125 3.75 3.125 4.4062v3.4062h-6.25c-0.85938 0-1.5625 0.70312-1.5625 1.5625v4.6875h3.125v-3.125h6.25c0.85938 0 1.5625-0.70312 1.5625-1.5625v-4.9688c1.8125-0.65625 3.125-2.375 3.125-4.4062 0-2.5781-2.1094-4.6875-4.6875-4.6875zm-17.188-3.125c-2.5781 0-4.6875 2.1094-4.6875 4.6875 0 2.0312 1.3125 3.75 3.125 4.4062v12.781h3.125v-12.781c1.8125-0.65625 3.125-2.375 3.125-4.4062 0-2.5781-2.1094-4.6875-4.6875-4.6875zm-10.938 65.625v3.125h-6.25c-0.85938 0-1.5625 0.70312-1.5625 1.5625v4.9688c-1.8125 0.65625-3.125 2.375-3.125 4.4062 0 2.5781 2.1094 4.6875 4.6875 4.6875s4.6875-2.1094 4.6875-4.6875c0-2.0312-1.3125-3.75-3.125-4.4062v-3.4062h6.25c0.85938 0 1.5625-0.70312 1.5625-1.5625v-4.6875zm29.688 9.6562v-4.9688c0-0.85938-0.70312-1.5625-1.5625-1.5625h-6.25v-3.125h-3.125v4.6875c0 0.85938 0.70312 1.5625 1.5625 1.5625h6.25v3.4062c-1.8125 0.65625-3.125 2.375-3.125 4.4062 0 2.5781 2.1094 4.6875 4.6875 4.6875s4.6875-2.1094 4.6875-4.6875c0-2.0312-1.3125-3.75-3.125-4.4062zm-17.188 3.125v-12.781h-3.125v12.781c-1.8125 0.65625-3.125 2.375-3.125 4.4062 0 2.5781 2.1094 4.6875 4.6875 4.6875s4.6875-2.1094 4.6875-4.6875c0-2.0312-1.3125-3.75-3.125-4.4062zm34.375-56.531c-2.0312 0-3.75 1.3125-4.4062 3.125h-4.9688c-0.85938 0-1.5625 0.70312-1.5625 1.5625v6.25h-3.125v3.125h4.6875c0.85938 0 1.5625-0.70312 1.5625-1.5625v-6.25h3.4062c0.65625 1.8125 2.375 3.125 4.4062 3.125 2.5781 0 4.6875-2.1094 4.6875-4.6875s-2.1094-4.6875-4.6875-4.6875zm0 34.375c-2.0312 0-3.75 1.3125-4.4062 3.125h-3.4062v-6.25c0-0.85938-0.70312-1.5625-1.5625-1.5625h-4.6875v3.125h3.125v6.25c0 0.85938 0.70312 1.5625 1.5625 1.5625h4.9688c0.65625 1.8125 2.375 3.125 4.4062 3.125 2.5781 0 4.6875-2.1094 4.6875-4.6875s-2.1094-4.6875-4.6875-4.6875zm3.125-17.188c-2.0312 0-3.75 1.3125-4.4062 3.125h-12.781v3.125h12.781c0.65625 1.8125 2.375 3.125 4.4062 3.125 2.5781 0 4.6875-2.1094 4.6875-4.6875s-2.1094-4.6875-4.6875-4.6875zm-64.062-6.25v-6.25c0-0.85938-0.70312-1.5625-1.5625-1.5625h-4.9688c-0.65625-1.8125-2.375-3.125-4.4062-3.125-2.5781 0-4.6875 2.1094-4.6875 4.6875s2.1094 4.6875 4.6875 4.6875c2.0312 0 3.75-1.3125 4.4062-3.125h3.4062v6.25c0 0.85938 0.70312 1.5625 1.5625 1.5625h4.6875v-3.125zm-1.5625 18.75c-0.85938 0-1.5625 0.70312-1.5625 1.5625v6.25h-3.4062c-0.65625-1.8125-2.375-3.125-4.4062-3.125-2.5781 0-4.6875 2.1094-4.6875 4.6875s2.1094 4.6875 4.6875 4.6875c2.0312 0 3.75-1.3125 4.4062-3.125h4.9688c0.85938 0 1.5625-0.70312 1.5625-1.5625v-6.25h3.125v-3.125zm-8.0938-9.375c-0.65625-1.8125-2.375-3.125-4.4062-3.125-2.5781 0-4.6875 2.1094-4.6875 4.6875s2.1094 4.6875 4.6875 4.6875c2.0312 0 3.75-1.3125 4.4062-3.125h12.781v-3.125zm53.406-9.375v21.875c0 4.3086-3.5039 7.8125-7.8125 7.8125h-21.875c-4.3086 0-7.8125-3.5039-7.8125-7.8125v-21.875c0-4.3086 3.5039-7.8125 7.8125-7.8125h21.875c4.3086 0 7.8125 3.5039 7.8125 7.8125zm-15.734 18.168-6.25-15.625c-0.23828-0.59375-0.8125-0.98047-1.4531-0.98047s-1.2109 0.39062-1.4531 0.98047l-6.25 15.625c-0.32031 0.80078 0.070313 1.7109 0.87109 2.0312 0.80078 0.31641 1.7109-0.070313 2.0312-0.87109l1.4961-3.7422c0.0625 0.007812 0.11328 0.035156 0.17969 0.035156h6.25c0.0625 0 0.11719-0.027344 0.17969-0.035156l1.4961 3.7422c0.24609 0.60938 0.83203 0.98438 1.4531 0.98438 0.19531 0 0.39062-0.035156 0.57812-0.11328 0.80078-0.32031 1.1914-1.2305 0.87109-2.0312zm6.3594-15.043c0-0.86328-0.69922-1.5625-1.5625-1.5625s-1.5625 0.69922-1.5625 1.5625v15.625c0 0.86328 0.69922 1.5625 1.5625 1.5625s1.5625-0.69922 1.5625-1.5625zm-16.129 9.375h4.1328l-2.0664-5.168z"/>
</svg>