<svg xmlns="http://www.w3.org/2000/svg" version="1.1" viewBox="-5.0 -10.0 110.0 135.0">
 <path d="m35.797 37.973c5.6016 0 10.156-4.5586 10.156-10.156 0-0.19922-0.011719-0.40234-0.023437-0.60156h0.31641c0.44141 0 0.79688-0.35547 0.79688-0.79688 0-5.6016-4.5586-10.156-10.156-10.156-0.44141 0-0.79688 0.35547-0.79688 0.79688v0.62109c-0.097656-0.003907-0.19531-0.015626-0.29297-0.015626-5.6016 0-10.156 4.5586-10.156 10.156 0 5.6016 4.5586 10.156 10.156 10.156zm9.6133-12.355h-7.7266v-7.7266c4.0859 0.37891 7.3477 3.6406 7.7266 7.7266zm-9.6133-6.3672c0.097656 0 0.19531 0.011719 0.29297 0.015625v7.1445c0 0.44141 0.35547 0.79688 0.79688 0.79688h7.4297c0.015625 0.20312 0.042969 0.40234 0.042969 0.60156 0 4.7227-3.8398 8.5625-8.5625 8.5625s-8.5625-3.8398-8.5625-8.5625 3.8398-8.5625 8.5625-8.5625zm-8.2148 18.66c-0.44141 0-0.79688 0.35547-0.79688 0.79688v9.9492c0 0.44141 0.35547 0.79688 0.79688 0.79688h5.3164c0.44141 0 0.79687-0.35547 0.79687-0.79688v-9.9492c0-0.44141-0.35547-0.79688-0.79687-0.79688zm4.5195 9.9492h-3.7227v-8.3555h3.7227zm10.102-9.5234h-5.3438c-0.44141 0-0.79688 0.35547-0.79688 0.79687v9.5234c0 0.44141 0.35547 0.79688 0.79688 0.79688h5.3438c0.44141 0 0.79688-0.35547 0.79688-0.79688v-9.5234c0-0.44141-0.35547-0.79687-0.79688-0.79687zm-0.79688 9.5234h-3.75v-7.9297h3.75zm3.9336-14.488v15.285c0 0.44141 0.35547 0.79688 0.79688 0.79688h5.3672c0.44141 0 0.79688-0.35547 0.79688-0.79688v-15.285c0-0.44141-0.35547-0.79688-0.79688-0.79688h-5.3672c-0.44141 0-0.79688 0.35547-0.79688 0.79688zm1.5938 0.79688h3.7734v13.691h-3.7734zm8.4844 15.285h5.3242c0.44141 0 0.79687-0.35547 0.79687-0.79688v-19.895c0-0.44141-0.35547-0.79688-0.79687-0.79688h-5.3242c-0.44141 0-0.79688 0.35547-0.79688 0.79688v19.895c0 0.44141 0.35547 0.79688 0.79688 0.79688zm0.79688-19.895h3.7305v18.301h-3.7305zm-28.633 22.977c-0.44141 0-0.79688-0.35547-0.79688-0.79688 0-0.44141 0.35547-0.79688 0.79688-0.79688h30.195c0.44141 0 0.79688 0.35547 0.79688 0.79688 0 0.44141-0.35547 0.79688-0.79688 0.79688zm4.4961 4.0469h-4.0352c-0.44141 0-0.79688 0.35547-0.79688 0.79688v4.0352c0 0.44141 0.35547 0.79688 0.79688 0.79688h4.0352c0.44141 0 0.79688-0.35547 0.79688-0.79688v-4.0352c0-0.44141-0.35547-0.79688-0.79688-0.79688zm-0.79688 4.0352h-2.4414v-2.4414h2.4414zm22.191-2.6523c0 0.44141-0.35547 0.79688-0.79688 0.79688h-17.129c-0.44141 0-0.79688-0.35547-0.79688-0.79688s0.35547-0.79688 0.79688-0.79688h17.129c0.44141 0 0.79688 0.35547 0.79688 0.79688zm0 3.3398c0 0.44141-0.35547 0.79687-0.79688 0.79687h-17.129c-0.44141 0-0.79688-0.35547-0.79688-0.79687 0-0.44141 0.35547-0.79688 0.79688-0.79688h17.129c0.44141 0 0.79688 0.35547 0.79688 0.79688zm-21.395 3.3477h-4.0352c-0.44141 0-0.79688 0.35547-0.79688 0.79688v4.0352c0 0.44141 0.35547 0.79688 0.79688 0.79688h4.0352c0.44141 0 0.79688-0.35547 0.79688-0.79688v-4.0352c0-0.44141-0.35547-0.79688-0.79688-0.79688zm-0.79688 4.0352h-2.4414v-2.4414h2.4414zm22.191-2.6523c0 0.44141-0.35547 0.79688-0.79688 0.79688h-17.129c-0.44141 0-0.79688-0.35547-0.79688-0.79688s0.35547-0.79688 0.79688-0.79688h17.129c0.44141 0 0.79688 0.35547 0.79688 0.79688zm0 3.3398c0 0.44141-0.35547 0.79688-0.79688 0.79688h-17.129c-0.44141 0-0.79688-0.35547-0.79688-0.79688s0.35547-0.79688 0.79688-0.79688h17.129c0.44141 0 0.79688 0.35547 0.79688 0.79688zm26.723-14.039c-1.2695-2.5859-3.4688-4.5234-6.1914-5.4531-2.7266-0.92969-5.6484-0.74609-8.2344 0.52344-2.5859 1.2695-4.5234 3.4688-5.4531 6.1914-0.92969 2.7266-0.74609 5.6484 0.52344 8.2344 1.8711 3.8125 5.7109 6.0312 9.6953 6.0312 1.5898 0 3.207-0.35547 4.7305-1.1016 5.3359-2.6172 7.5469-9.0898 4.9297-14.426zm-17.926 8.793c-1.082-2.2031-1.2383-4.6953-0.44531-7.0156 0.79297-2.3203 2.4453-4.1953 4.6484-5.2773 2.2031-1.082 4.6953-1.2383 7.0156-0.44531 2.3203 0.79297 4.1953 2.4453 5.2773 4.6484 2.2305 4.5469 0.34766 10.062-4.2031 12.293-4.5469 2.2305-10.062 0.34766-12.293-4.2031zm24.305 20.598-4.6133-9.4062c-0.41797-0.85156-1.1445-1.4883-2.0469-1.7969-0.011718-0.003907-0.023437-0.003907-0.039062-0.007813l-0.96875-1.9727c5.4922-4.0195 7.3789-11.469 4.3477-17.648-2.4961-5.0938-7.668-8.0039-12.996-7.9062v-35.047c0-0.44141-0.35547-0.79688-0.79687-0.79688l-50.676-0.003906c-0.44141 0-0.79688 0.35547-0.79688 0.79688v3.7461h-4.1289c-0.44141 0-0.79688 0.35547-0.79688 0.79688v70.109c0 0.44141 0.35547 0.79688 0.79688 0.79688h50.676c0.44141 0 0.79688-0.35547 0.79688-0.79688v-3.7461h4.1289c0.44141 0 0.79687-0.35547 0.79687-0.79688v-6.7656c0.097657 0.003906 0.19922 0.011719 0.29688 0.011719 1.293 0 2.6016-0.19141 3.8867-0.5625l0.96484 1.9688c-0.30859 0.87109-0.28516 1.8633 0.15234 2.7578l4.6133 9.4062c0.61719 1.2617 1.8867 1.9922 3.2031 1.9922 0.52734 0 1.0586-0.11719 1.5625-0.36328 1.7617-0.86328 2.4922-3.0039 1.6289-4.7656zm-22.836 0.066407h-49.082v-68.516h3.332v64.773c0 0.44141 0.35547 0.79688 0.79688 0.79688h44.953v2.9492zm4.9258-4.5391h-49.082v-68.516h49.082v34.367c-1.4805 0.19531-2.9492 0.62109-4.3633 1.3125-7.0117 3.4375-9.918 11.941-6.4766 18.953 2.1406 4.3633 6.2852 7.1836 10.84 7.7969zm-9.4062-14.59c-3.0508-6.2227-0.47266-13.766 5.75-16.82 3.0156-1.4766 6.4219-1.6953 9.6016-0.60938 3.1758 1.0859 5.7422 3.3438 7.2188 6.3594 2.7812 5.6719 0.90625 12.566-4.3672 16.031-0.03125 0.019531-0.050782 0.050781-0.078126 0.078125-0.039062 0.035156-0.082031 0.070313-0.11328 0.11328-0.03125 0.042969-0.050781 0.085938-0.074219 0.12891-0.023437 0.046876-0.042968 0.089844-0.058593 0.14063-0.011719 0.050781-0.015625 0.097656-0.019531 0.14844-0.003907 0.050781-0.007813 0.10156 0 0.15234 0.007812 0.050781 0.023437 0.10156 0.039062 0.15234 0.011719 0.035157 0.011719 0.070313 0.027344 0.10547l0.87109 1.7734c-0.29297 0.058593-0.58203 0.14453-0.85547 0.27734-0.27734 0.13672-0.51953 0.3125-0.74609 0.50781l-0.86719-1.7734c-0.015626-0.035157-0.046876-0.054688-0.066407-0.085938-0.03125-0.042969-0.058593-0.089844-0.097656-0.125-0.035156-0.035156-0.078125-0.0625-0.12109-0.089844s-0.082031-0.054687-0.12891-0.074218c-0.046875-0.019532-0.09375-0.027344-0.14453-0.039063-0.050782-0.011719-0.097656-0.019531-0.14844-0.019531-0.054687 0-0.10547 0.011718-0.15625 0.019531-0.035156 0.007813-0.070312 0.003906-0.10938 0.015625-5.9688 2.0469-12.566-0.6875-15.348-6.3594zm24.984 22.398c-0.97266 0.47656-2.1562 0.074219-2.6328-0.89844l-4.6133-9.4062c-0.47656-0.97266-0.074219-2.1562 0.89844-2.6328l-0.35156-0.71484 0.35156 0.71484c0.46875-0.23047 1.0039-0.26172 1.5-0.09375 0.5 0.17188 0.90234 0.52344 1.1289 0.99219l4.6133 9.4062c0.47656 0.97266 0.074219 2.1562-0.89844 2.6328zm-15.887-34.258c0.16797 0.40625-0.023438 0.875-0.42969 1.043-2.5547 1.0586-3.9375 3.9414-3.2109 6.7031 0.11328 0.42578-0.14453 0.86328-0.57031 0.97266-0.066406 0.019531-0.13672 0.027343-0.20312 0.027343-0.35547 0-0.67578-0.23828-0.76953-0.59375-0.92578-3.5312 0.85547-7.2188 4.1445-8.5781 0.40625-0.16797 0.875 0.023438 1.043 0.42969z"/>
</svg>