<svg xmlns="http://www.w3.org/2000/svg" version="1.1" viewBox="-5.0 -10.0 110.0 135.0">
 <path d="m15.227 26.488zm69.547 60.902v-15.652c-1.8477 1.5938-4.6367 2.832-7.8789 3.793-9.9414 2.9453-24.375 3.4453-26.895 3.4453-10.043 0-19.16-1.2148-25.777-3.1797-3.9336-1.168-7.0312-2.6406-8.9961-4.332v15.93c0 2.3555 3.6953 4.6289 9.6719 6.4062 6.4023 1.8984 15.277 3.0742 25.102 3.0742s18.699-1.1758 25.102-3.0781c5.9766-1.7734 9.6719-4.0508 9.6719-6.4062zm-4.7773-33.395c1.9766-0.84375 3.5938-1.7773 4.7773-2.7891v15.652c-0.019532 0.085937-0.03125 0.17578-0.03125 0.26953 0 2.6836-3.6523 4.6602-8.5234 6.1055-9.6445 2.8555-23.754 3.3398-26.219 3.3398-9.8242 0-18.699-1.1758-25.102-3.0781-5.9766-1.7734-9.6719-4.0508-9.6719-6.4062v-15.926c1.9648 1.6914 5.0625 3.1641 8.9961 4.332 6.6172 1.9648 15.734 3.1797 25.777 3.1797 6.0273 0 11.734-0.44141 16.777-1.2227 5.25-0.8125 9.7695-1.9961 13.168-3.4375 0.019532-0.003906 0.035157-0.011719 0.050782-0.019531zm-54.957-11.352c-0.29687-0.29688-0.71094-0.48438-1.1641-0.48438-0.45703 0-0.86719 0.18359-1.1641 0.48047-0.29688 0.29688-0.48047 0.71094-0.48047 1.1641 0 0.45703 0.18359 0.86719 0.48047 1.1641 0.29687 0.29688 0.71094 0.48047 1.1641 0.48047 0.45703 0 0.86719-0.18359 1.1641-0.48047 0.29688-0.29688 0.48047-0.71094 0.48047-1.1641 0.003907-0.45313-0.17969-0.86328-0.48047-1.1602zm-1.1641-2.8867c1.1172 0 2.1328 0.45313 2.8672 1.1875 0.73437 0.73438 1.1875 1.7461 1.1875 2.8672 0 1.1172-0.45313 2.1328-1.1875 2.8672-0.73438 0.73437-1.7461 1.1875-2.8672 1.1875-1.1172 0-2.1328-0.45313-2.8672-1.1875-0.73437-0.73438-1.1875-1.7461-1.1875-2.8672 0-1.1172 0.45313-2.1328 1.1875-2.8672 0.73438-0.73437 1.7461-1.1875 2.8672-1.1875zm12.168 6.1836c-0.29688-0.29688-0.71094-0.48047-1.1641-0.48047-0.45703 0-0.86719 0.18359-1.1641 0.48047s-0.48047 0.71094-0.48047 1.1641c0 0.45703 0.18359 0.86719 0.48047 1.1641s0.71094 0.48047 1.1641 0.48047c0.45703 0 0.86719-0.18359 1.1641-0.48047s0.48047-0.71094 0.48047-1.1641-0.18359-0.86719-0.48047-1.1641zm-1.1641-2.8867c1.1172 0 2.1328 0.45312 2.8672 1.1875 0.73438 0.73437 1.1875 1.7461 1.1875 2.8672 0 1.1172-0.45312 2.1328-1.1875 2.8672-0.73438 0.73438-1.7461 1.1875-2.8672 1.1875-1.1172 0-2.1328-0.45312-2.8672-1.1875-0.73438-0.73437-1.1875-1.7461-1.1875-2.8672 0-1.1172 0.45312-2.1328 1.1875-2.8672 0.73438-0.73438 1.7461-1.1875 2.8672-1.1875zm33.055 4.8477c-0.65234 0.11719-1.2734-0.3125-1.3945-0.96094-0.11719-0.65234 0.3125-1.2734 0.96094-1.3945 2.6641-0.49609 5.0859-1.0977 7.2031-1.7773 2.0703-0.66797 3.8438-1.4141 5.2578-2.2266 0.57422-0.32812 1.3086-0.12891 1.6367 0.44531s0.12891 1.3086-0.44531 1.6367c-1.543 0.88281-3.4727 1.6992-5.7188 2.4219-2.207 0.71484-4.7266 1.3398-7.5 1.8555zm0 19.598c2.7695-0.51562 5.293-1.1406 7.5039-1.8555 2.2461-0.72266 4.1719-1.5391 5.7188-2.4219 0.57422-0.32812 0.77344-1.0625 0.44531-1.6367-0.32812-0.57422-1.0625-0.77344-1.6367-0.44531-1.4141 0.80859-3.1875 1.5586-5.2578 2.2266-2.1172 0.68359-4.5391 1.2812-7.2031 1.7773-0.65234 0.11719-1.082 0.74219-0.96094 1.3945 0.11719 0.65234 0.74219 1.082 1.3906 0.96094zm0 19.602c-0.65234 0.12109-1.2734-0.3125-1.3945-0.96094-0.11719-0.65234 0.3125-1.2734 0.96094-1.3945 2.6641-0.49609 5.0859-1.0977 7.2031-1.7773 2.0703-0.66797 3.8438-1.4141 5.2578-2.2266 0.57422-0.32813 1.3086-0.12891 1.6367 0.44531s0.12891 1.3086-0.44531 1.6367c-1.543 0.88281-3.4727 1.6992-5.7188 2.4219-2.207 0.71484-4.7266 1.3359-7.5 1.8555zm-42.895-24.301c-0.29687-0.29688-0.71094-0.48438-1.1641-0.48438-0.45703 0-0.86719 0.18359-1.1641 0.48438-0.29688 0.29688-0.48047 0.71094-0.48047 1.1641 0 0.45703 0.18359 0.86719 0.48047 1.1641 0.29687 0.29688 0.71094 0.48438 1.1641 0.48438 0.45703 0 0.86719-0.18359 1.1641-0.48438 0.29688-0.30078 0.48047-0.71094 0.48047-1.1641 0.003907-0.45703-0.17969-0.86719-0.48047-1.1641zm-1.1641-2.8867c-1.1172 0-2.1328 0.45313-2.8672 1.1875-0.73437 0.73438-1.1875 1.7461-1.1875 2.8672 0 1.1172 0.45313 2.1328 1.1875 2.8672 0.73438 0.73437 1.7461 1.1875 2.8672 1.1875 1.1172 0 2.1328-0.45313 2.8672-1.1875 0.73437-0.73438 1.1875-1.7461 1.1875-2.8672 0-1.1172-0.45313-2.1328-1.1875-2.8672-0.73438-0.73437-1.75-1.1875-2.8672-1.1875zm12.168 6.1836c-0.29688-0.29688-0.71094-0.48047-1.1641-0.48047-0.45703 0-0.86719 0.18359-1.1641 0.48047s-0.48047 0.71094-0.48047 1.1641c0 0.45703 0.18359 0.86719 0.48047 1.1641s0.71094 0.48047 1.1641 0.48047c0.45703 0 0.86719-0.18359 1.1641-0.48047s0.48047-0.71094 0.48047-1.1641c0.003906-0.45312-0.18359-0.86719-0.48047-1.1641zm-1.1641-2.8867c-1.1172 0-2.1328 0.45312-2.8672 1.1875-0.73438 0.73437-1.1875 1.7461-1.1875 2.8672 0 1.1172 0.45312 2.1328 1.1875 2.8672 0.73438 0.73438 1.7461 1.1875 2.8672 1.1875 1.1172 0 2.1328-0.45312 2.8672-1.1875 0.73438-0.73437 1.1875-1.7461 1.1875-2.8672 0-1.1172-0.45312-2.1328-1.1875-2.8672-0.73828-0.73438-1.75-1.1875-2.8672-1.1875zm-9.8398 19.742c0.29688 0.29688 0.48047 0.71094 0.48047 1.1641 0 0.45703-0.18359 0.86719-0.48047 1.1641-0.29687 0.29688-0.71094 0.48438-1.1641 0.48438-0.45703 0-0.86719-0.18359-1.1641-0.48047-0.29688-0.29688-0.48047-0.71094-0.48047-1.1641 0-0.45703 0.18359-0.86719 0.48047-1.1641 0.29687-0.29688 0.71094-0.48047 1.1641-0.48047 0.45312-0.003906 0.86719 0.17969 1.1641 0.47656zm-1.1641-2.8867c1.1172 0 2.1328 0.45312 2.8672 1.1875 0.73437 0.73438 1.1875 1.7461 1.1875 2.8672 0 1.1172-0.45313 2.1328-1.1875 2.8672-0.73438 0.73438-1.7461 1.1875-2.8672 1.1875-1.1172 0-2.1328-0.45312-2.8672-1.1875-0.73437-0.73438-1.1875-1.7461-1.1875-2.8672 0-1.1172 0.45313-2.1328 1.1875-2.8672 0.73438-0.73047 1.7461-1.1875 2.8672-1.1875zm12.168 6.1875c0.29688 0.29688 0.48047 0.71094 0.48047 1.1641 0 0.45703-0.18359 0.86719-0.48047 1.1641s-0.71094 0.48047-1.1641 0.48047c-0.45703 0-0.86719-0.18359-1.1641-0.48047s-0.48047-0.71094-0.48047-1.1641c0-0.45703 0.18359-0.86719 0.48047-1.1641s0.71094-0.48047 1.1641-0.48047c0.45312-0.003907 0.86719 0.17969 1.1641 0.48047zm-1.1641-2.8867c1.1172 0 2.1328 0.45312 2.8672 1.1875 0.73438 0.73437 1.1875 1.7461 1.1875 2.8672 0 1.1172-0.45312 2.1328-1.1875 2.8672-0.73438 0.73438-1.7461 1.1875-2.8672 1.1875-1.1172 0-2.1328-0.45312-2.8672-1.1875-0.73438-0.73437-1.1875-1.7461-1.1875-2.8672 0-1.1172 0.45312-2.1328 1.1875-2.8672 0.73438-0.73438 1.7461-1.1875 2.8672-1.1875zm24.086-76.531c-2.2969-2.293-5.4648-3.7109-8.9648-3.7109s-6.668 1.418-8.9648 3.7109c-2.293 2.293-3.7109 5.4648-3.7109 8.9648s1.418 6.668 3.7109 8.9648c2.293 2.293 5.4648 3.7109 8.9648 3.7109s6.668-1.418 8.9648-3.7109c2.293-2.293 3.7109-5.4648 3.7109-8.9648s-1.418-6.668-3.7109-8.9648zm-23.891 11.141c-5.9531 0.81641-10.988 2.1016-14.551 3.6914-3.3477 1.4922-5.3008 3.1602-5.3008 4.8203v0.003907c0.003906 2.3555 3.6992 4.6289 9.6719 6.4023 6.4062 1.8984 15.281 3.0781 25.105 3.0781 3.6328 0 7.1016-0.15625 10.336-0.44922 3.3516-0.30078 6.5117-0.75 9.4023-1.3242 0.65234-0.12891 1.2812 0.29688 1.4102 0.94922 0.12891 0.65234-0.29688 1.2812-0.94922 1.4102-2.9219 0.58203-6.168 1.0391-9.6562 1.3516-3.3711 0.30469-6.9141 0.46484-10.543 0.46484-10.043 0-19.16-1.2148-25.777-3.1797-3.9336-1.168-7.0312-2.6406-8.9961-4.332v15.93c0 2.3555 3.6953 4.6289 9.6719 6.4062 6.4023 1.8984 15.277 3.0742 25.102 3.0742 5.9453 0 11.523-0.42578 16.41-1.1836 5.0547-0.78125 9.3789-1.9102 12.605-3.2773 1.9492-0.82422 3.4727-1.7305 4.4844-2.6836 0.82812-0.78125 1.2734-1.5703 1.2734-2.3398v-15.879c-0.83594 0.71094-1.832 1.3398-2.9023 1.8984-2.6523 1.3789-5.7734 2.3203-7.6758 2.8242-0.64062 0.16797-1.2969-0.21484-1.4648-0.85547s0.21484-1.2969 0.85547-1.4648c1.7891-0.47266 4.7109-1.3555 7.1797-2.6367 2.1992-1.1445 4.0039-2.5703 4.0117-4.1797v-0.011719c-0.003906-1.6602-1.957-3.3242-5.3008-4.8164-3.5625-1.5898-8.5977-2.875-14.551-3.6914-0.47656 3.293-2.0156 6.2461-4.2617 8.4922-2.7305 2.7305-6.5 4.418-10.664 4.418s-7.9336-1.6875-10.664-4.418c-2.2461-2.25-3.7852-5.1992-4.2617-8.4922zm19.223-7.4766c0.40234-0.52344 1.1562-0.62109 1.6797-0.21484 0.52344 0.40234 0.62109 1.1562 0.21484 1.6797l-6.5039 8.3984c-0.40234 0.52344-1.1562 0.62109-1.6797 0.21484l-4.0117-3.2734c-0.51172-0.41797-0.58984-1.1719-0.17578-1.6836 0.41797-0.51172 1.1719-0.58984 1.6836-0.17578l3.0391 2.4766z" fill-rule="evenodd"/>
</svg>