<svg xmlns="http://www.w3.org/2000/svg" xmlns:xlink="http://www.w3.org/1999/xlink" version="1.1" x="0px" y="0px" viewBox="0 0 96 120" style="enable-background:new 0 0 96 96;" xml:space="preserve"><style type="text/css">
	.st0{fill-rule:evenodd;clip-rule:evenodd;}
</style><path class="st0" d="M42.284,13.038h15.78v13.004l-2.776,2.776H42.284V13.038L42.284,13.038z M50.174,71.099  c5.396,0,9.77,4.374,9.77,9.77c0,5.396-4.374,9.77-9.77,9.77s-9.77-4.374-9.77-9.77C40.403,75.474,44.778,71.099,50.174,71.099  L50.174,71.099z M55.238,82.001c0.215-0.106,0.402-0.275,0.531-0.498c0.349-0.603,0.144-1.376-0.46-1.725l-6.976-4.027  c-0.202-0.137-0.446-0.217-0.708-0.217c-0.699,0-1.265,0.567-1.265,1.265v8.142h0.003c0,0.215,0.055,0.433,0.17,0.633  c0.349,0.603,1.122,0.809,1.725,0.46l3.526-2.035l-0.001-0.002L55.238,82.001L55.238,82.001z M80.087,74.668l6.14-5.854V80.87  v12.056l-6.14-5.854h-6.938V74.668H80.087L80.087,74.668z M19.483,82.945L13.4,90.226v-7.281h-2.538  c-0.599,0-1.089-0.49-1.089-1.089v-9.254c0-0.599,0.49-1.089,1.089-1.089h19.596c0.599,0,1.089,0.49,1.089,1.089v9.254  c0,0.599-0.49,1.089-1.089,1.089H19.483L19.483,82.945z M26.988,76.002c-0.699,0-1.266,0.567-1.266,1.266  c0,0.699,0.567,1.266,1.266,1.266c0.699,0,1.266-0.567,1.266-1.266C28.253,76.569,27.686,76.002,26.988,76.002L26.988,76.002z   M20.66,76.002c-0.699,0-1.266,0.567-1.266,1.266c0,0.699,0.567,1.266,1.266,1.266c0.699,0,1.266-0.567,1.266-1.266  C21.925,76.569,21.359,76.002,20.66,76.002L20.66,76.002z M14.332,76.002c-0.699,0-1.266,0.567-1.266,1.266  c0,0.699,0.567,1.266,1.266,1.266s1.265-0.567,1.265-1.266C15.598,76.569,15.031,76.002,14.332,76.002L14.332,76.002z   M48.366,43.082c0-0.998,0.809-1.808,1.808-1.808c0.998,0,1.808,0.809,1.808,1.808v8.567h27.706c0.998,0,1.808,0.809,1.808,1.808  v13.505c0,0.998-0.809,1.808-1.808,1.808c-0.998,0-1.808-0.809-1.808-1.808V55.264H51.982v11.697c0,0.998-0.809,1.808-1.808,1.808  c-0.998,0-1.808-0.809-1.808-1.808V55.264H22.468v11.697c0,0.998-0.809,1.808-1.808,1.808c-0.998,0-1.808-0.809-1.808-1.808V53.456  c0-0.998,0.809-1.808,1.808-1.808h27.706V43.082L48.366,43.082z M48.908,11.23V4.34c0-0.699,0.567-1.265,1.265-1.265  c0.699,0,1.265,0.567,1.265,1.265v6.891H48.908L48.908,11.23z M44.848,11.23V7.193c0-0.699,0.567-1.265,1.265-1.265  c0.699,0,1.265,0.567,1.265,1.265v4.038H44.848L44.848,11.23z M52.969,11.23V7.193c0-0.699,0.567-1.265,1.266-1.265  c0.699,0,1.265,0.567,1.265,1.265v4.038H52.969L52.969,11.23z M51.439,30.625v6.891c0,0.699-0.567,1.265-1.265,1.265  c-0.699,0-1.265-0.567-1.265-1.265v-6.891H51.439L51.439,30.625z M47.378,30.625v4.038c0,0.699-0.567,1.265-1.265,1.265  c-0.699,0-1.265-0.567-1.265-1.265v-4.038H47.378L47.378,30.625z M55.5,30.625v4.038c0,0.699-0.567,1.265-1.265,1.265  c-0.699,0-1.266-0.567-1.266-1.265v-4.038H55.5L55.5,30.625z M59.871,19.662h6.891c0.699,0,1.265,0.567,1.265,1.265  c0,0.699-0.567,1.265-1.265,1.265h-6.891V19.662L59.871,19.662z M59.871,23.723h4.038c0.699,0,1.265,0.567,1.265,1.265  c0,0.699-0.567,1.265-1.265,1.265h-4.038V23.723L59.871,23.723z M59.871,15.602h4.038c0.699,0,1.265,0.567,1.265,1.265  c0,0.699-0.567,1.265-1.265,1.265h-4.038V15.602L59.871,15.602z M40.477,22.193h-6.891c-0.699,0-1.265-0.567-1.265-1.265  c0-0.699,0.567-1.265,1.265-1.265h6.891V22.193L40.477,22.193z M40.477,26.254h-4.038c-0.699,0-1.265-0.567-1.265-1.265  c0-0.699,0.567-1.265,1.265-1.265h4.038V26.254L40.477,26.254z M40.477,18.132h-4.038c-0.699,0-1.265-0.567-1.265-1.265  c0-0.699,0.567-1.265,1.265-1.265h4.038V18.132L40.477,18.132z M46.794,24.695v-7.246h7.246c0.699,0,1.265-0.567,1.265-1.265  c0-0.699-0.567-1.266-1.265-1.266h-8.512c-0.699,0-1.265,0.567-1.265,1.266v8.511c0,0.699,0.567,1.265,1.265,1.265  C46.227,25.961,46.794,25.394,46.794,24.695z"/></svg>