<svg xmlns="http://www.w3.org/2000/svg" version="1.1" viewBox="-5.0 -10.0 110.0 135.0">
 <path d="m14.324 31.422h7.5234c2.5 0 4.5508-2.0469 4.5508-4.5508v-7.2305zm23.535-12.852 2.2422 3.0234c1.0469 1.4141 0.80859 1.7266 0.14453 2.6094-0.50781 0.66406-0.83594 1.2461-0.83594 2.1094 0 2.5859 3.1484 3.875 4.9727 2.0547 0.52344-0.52344 0.85156-1.25 0.85156-2.0547 0-0.86328-0.32812-1.4453-0.82812-2.1094-0.67188-0.88281-0.91016-1.1953 0.14062-2.6094l2.2422-3.0234zm12.664-10.836h-16.398c-0.65625 0-1.1953 0.53906-1.1953 1.1953v6.793c0 0.65234 0.53906 1.1875 1.1953 1.1875h16.398c0.65625 0 1.1953-0.53906 1.1953-1.1875v-6.793c0-0.65625-0.53906-1.1953-1.1953-1.1953zm-30.258 64.461c-1.0312 0-1.0312-1.5625 0-1.5625h31.422c1.0312 0 1.0312 1.5625 0 1.5625zm0-7.9688c-1.0312 0-1.0312-1.5625 0-1.5625h44.113c1.0312 0 1.0312 1.5625 0 1.5625zm0-7.9648c-1.0312 0-1.0312-1.5625 0-1.5625h10.879c1.0312 0 1.0312 1.5625 0 1.5625zm0-7.9727c-1.0312 0-1.0312-1.5625 0-1.5625h10.879c1.0312 0 1.0312 1.5625 0 1.5625zm0-7.9688c-1.0312 0-1.0312-1.5625 0-1.5625h10.879c1.0312 0 1.0312 1.5625 0 1.5625zm59.18 6.0156c0.78906-0.69141 0.80469-1.9219 0-2.625l-5.4062-3.9688c-0.88672-0.64063-1.9922 0.45312-1.0938 1.3125 1.0859 1.0391 2.2031 2.3281 3.25 3.4297 0.28125 0.30469 0.27734 0.77344 0 1.0703l-3.2227 3.4102c-0.92578 0.98047 0.19531 1.9492 1.0898 1.3203zm0.92188-3.875c1.5469 1.2812 1.7031 3.875 0 5.125l-5.3906 3.9609c-2.3281 1.8594-5.4219-1.4336-3.1406-3.6602l2.707-2.8633-2.707-2.8633c-2.2148-2.1641 0.53125-5.3711 3.1094-3.6836zm-13.844-4.6641c0.3125-0.97656 1.793-0.50391 1.4844 0.46875l-4.4727 14.035c-0.30469 0.97656-1.7891 0.50391-1.4844-0.46875zm-15.895 8.5664 5.3867 3.9531c0.89844 0.625 2.0156-0.34375 1.0898-1.3203l-3.2227-3.4102c-0.27734-0.29297-0.28125-0.76563 0-1.0703 1.0469-1.1016 2.1641-2.3906 3.25-3.4297 0.89844-0.85547-0.21094-1.9531-1.0938-1.3125l-5.4062 3.9688c-0.80469 0.69922-0.79687 1.9297-0.003906 2.6211zm-0.92578-3.8789 5.4219-3.9805c2.5781-1.6875 5.3281 1.5156 3.1094 3.6836l-2.707 2.8633 2.707 2.8633c2.2812 2.2266-0.80859 5.5195-3.1445 3.6602l-5.3867-3.9609c-1.7109-1.25-1.5469-3.8477 0-5.1289zm37.898 19.398 2.1484-2.0859c0.79688-0.76953 0.8125-2.043 0.050781-2.8359l-3.875-3.9922c-0.76953-0.79688-2.0469-0.80859-2.8359-0.046875l-2.1562 2.0859zm-4.4766 4.3359 3.3555-3.25-6.668-6.8711-3.3477 3.25zm-18.258 11.438 14.008-13.586-3.5273-3.6367-14.008 13.586zm15.094-12.469-14.008 13.586 2.0547 2.1172 14-13.586zm9.8125-10.484c1.4336-0.011719 2.6016-1.1875 2.6016-2.6172v-14.062c0-1.4375-1.1797-2.6172-2.6172-2.6172l-49.453-0.007812c-1.4375 0-2.6172 1.1797-2.6172 2.6172v14.062c0 1.4375 1.1797 2.6172 2.6172 2.6172h38.719l2.9844-2.8984c1.4062-1.3672 3.6719-1.3281 5.0312 0.078125zm-16.758 5.8125 4-3.875v-0.375h-4zm-13.27 21.711 6.6797-0.73047-5.7461-5.9219zm11.711-48.387v-11.359c0-2.1484-1.7578-3.9102-3.9102-3.9102h-18.82l-2.9336 3.9453c-0.35156 0.47656-0.29688 0.54297-0.15625 0.73438 0.71875 0.94141 1.1562 1.8438 1.1562 3.0547 0 3.9688-4.8359 5.957-7.6367 3.1641-0.80859-0.80859-1.3125-1.9258-1.3125-3.1641 0-1.2109 0.4375-2.1172 1.1562-3.0547 0.14453-0.19531 0.19531-0.25781-0.15625-0.73438l-2.9258-3.9453h-7.9531v8.2969c0 3.3594-2.7461 6.1094-6.1094 6.1094l-8.6641 0.003907v50.258c0 2.082 1.6992 3.7812 3.7812 3.7812h50.703c2.082 0 3.7812-1.6992 3.7812-3.7812v-3.5312l-3.0508 2.9609c-0.12109 0.125-0.28906 0.21094-0.47656 0.23438-0.96875 0.10547-8.9531 1.0195-9.2031 0.98438-0.42578-0.0625-0.72656-0.45312-0.66406-0.88281l1.2617-8.9805c0.023437-0.16406 0.10156-0.32813 0.22656-0.44922l11.902-11.547v-5.7695h-31.148c-2.2969 0-4.1797-1.8828-4.1797-4.1797v-14.062c0-2.3047 1.8828-4.1797 4.1797-4.1797h31.152zm5.5625 0v-16.797c0-2.082-1.6992-3.7812-3.7812-3.7812h-19.957v2.4609c0 0.46094-0.11719 0.89844-0.31641 1.2812h14.582c3.0117 0 5.4688 2.4609 5.4688 5.4766v11.359zm1.5625-10.074v10.078h10.531zm-66.676 7.8359 14.734-14.375c0.15625-0.14844 0.35156-0.21875 0.54297-0.21875l4.5-0.007812c-0.19922-0.38281-0.31641-0.82031-0.31641-1.2812v-2.4609h-19.961c-2.082 0-3.7812 1.6992-3.7812 3.7812v71.441c0 2.082 1.6992 3.7812 3.7812 3.7812h61.828c2.082 0 3.7812-1.6992 3.7812-3.7812l0.003906-14.164-4 3.875v5.0469c0 2.9453-2.3984 5.3438-5.3438 5.3438h-50.703c-2.9453 0-5.3438-2.3984-5.3438-5.3438l0.003906-51.035c0-0.24219 0.10156-0.45703 0.27344-0.60156zm8.3594 48.566c-1.0312 0-1.0312-1.5625 0-1.5625h30.969c1.0312 0 1.0312 1.5625 0 1.5625z"/>
</svg>