<svg xmlns="http://www.w3.org/2000/svg" version="1.1" viewBox="-5.0 -10.0 110.0 135.0">
 <path d="m51.195 47.035v3.8047h22.75c0.66016 0 1.1953 0.53516 1.1953 1.1953s-0.53516 1.1953-1.1953 1.1953l-23.945-0.003907h-23.941c-0.66016 0-1.1953-0.53516-1.1953-1.1953s0.53516-1.1953 1.1953-1.1953h22.746v-3.8047zm-8.6602 15.867zm47.883 0zm-7.5586 11.109c-0.64453 0.11719-1.2656-0.30859-1.3828-0.95703-0.11719-0.64453 0.30859-1.2656 0.95703-1.3828 1.1445-0.21484 2.1875-0.46484 3.1133-0.74219 0.90234-0.27344 1.6953-0.57813 2.3633-0.91016 0.58984-0.28906 1.3047-0.050781 1.5938 0.53906 0.28906 0.58984 0.050782 1.3047-0.53906 1.5938-0.76953 0.38281-1.6836 0.73438-2.7266 1.0508-1.0234 0.30859-2.1562 0.58203-3.3789 0.80859zm-10.113-21.98v10.871c0 0.66016 0.53516 1.1953 1.1953 1.1953s1.1953-0.53516 1.1953-1.1953v-10.871c0-0.66016-0.53516-1.1953-1.1953-1.1953-0.65625 0.003906-1.1953 0.53516-1.1953 1.1953zm2.3906 6.8281c-0.39453-0.007813-0.79297-0.011719-1.1953-0.011719s-0.80078 0.003906-1.1953 0.011719c-4.293 0.085937-8.1367 0.63281-10.965 1.4727-2.668 0.79297-4.3164 1.7109-4.3164 2.5703 0 0.85547 1.6484 1.7773 4.3164 2.5703 3.0898 0.91797 7.3867 1.4883 12.16 1.4883 1.7891 0 3.4844-0.074219 5.0469-0.21875 1.6172-0.14844 3.1602-0.36719 4.5742-0.64844 0.64453-0.12891 1.2734 0.28906 1.4023 0.9375 0.12891 0.64453-0.28906 1.2734-0.9375 1.4023-1.4453 0.28906-3.0703 0.51953-4.8242 0.67969-1.6992 0.15234-3.4648 0.23828-5.2617 0.23828-4.9883 0-9.5273-0.60547-12.832-1.5898-1.4453-0.42969-2.6797-0.94922-3.6484-1.543v6.6641c0 0.85938 1.6484 1.7773 4.3164 2.5703 3.0898 0.91797 7.3867 1.4844 12.16 1.4844 2.8984 0 5.6055-0.20703 7.9688-0.57031 2.4336-0.375 4.5117-0.91797 6.0508-1.5703 0.89062-0.37891 1.5781-0.78125 2.0234-1.2031 0.28125-0.26562 0.43359-0.50781 0.43359-0.71094v-6.6367c-0.88281 0.53125-2 1.0078-3.3125 1.418-0.62891 0.19531-1.2969-0.15625-1.4922-0.78516s0.15625-1.2969 0.78516-1.4922c1.4102-0.44141 2.5234-0.94531 3.2539-1.4883 0.49219-0.36719 0.76562-0.70313 0.76953-0.98828v-0.003906c0-0.85547-1.6484-1.7773-4.3164-2.5703-2.832-0.84375-6.6758-1.3906-10.965-1.4766zm15.281 27.324c-0.22656 0.13672-0.47266 0.27344-0.73047 0.40234-0.011719 0.007812-0.023438 0.011718-0.035156 0.019531-1.668 0.83203-4.0195 1.5195-6.8047 1.9883-2.6445 0.44531-5.6836 0.69922-8.9141 0.69922-4.9883 0-9.5273-0.60547-12.832-1.5898-1.4453-0.42969-2.6797-0.94922-3.6484-1.543v6.6641c0 0.85938 1.6484 1.7773 4.3164 2.5703 3.1016 0.91406 7.4023 1.4805 12.172 1.4805 4.7695 0 9.0703-0.56641 12.16-1.4844 2.668-0.79297 4.3164-1.7109 4.3164-2.5703zm-1.8242-1.7188c-1.4688 0.73047-3.5859 1.3438-6.1328 1.7734-2.5039 0.42188-5.4102 0.66406-8.5195 0.66406-4.7695 0-9.0703-0.56641-12.16-1.4844-2.668-0.79297-4.3164-1.7109-4.3164-2.5703v-6.6641c0.96484 0.59375 2.1992 1.1133 3.6484 1.543 3.3047 0.98047 7.8438 1.5898 12.832 1.5898 2.9805 0 5.8164-0.21875 8.332-0.60938 2.6289-0.40625 4.8945-1.0039 6.6094-1.7305 0.011719-0.003906 0.023437-0.007812 0.035156-0.015624 0.55469-0.23828 1.0586-0.48828 1.5-0.75781v6.6406c0 0.17188-0.10938 0.37109-0.30859 0.58594-0.32031 0.35156-0.83594 0.69922-1.5195 1.0352zm-27.484-14.914c1.0273 0 1.8594 0.83203 1.8594 1.8594s-0.83203 1.8594-1.8594 1.8594-1.8594-0.83203-1.8594-1.8594c-0.003906-1.0273 0.83203-1.8594 1.8594-1.8594zm5.4023 1.6211c1.0273 0 1.8594 0.83203 1.8594 1.8594s-0.83203 1.8594-1.8594 1.8594c-1.0273 0-1.8594-0.83203-1.8594-1.8594s0.83594-1.8594 1.8594-1.8594zm16.348 12.469c1.2227-0.22656 2.3555-0.5 3.3711-0.80859 1.043-0.31641 1.957-0.66797 2.7266-1.0508 0.58984-0.28906 0.83203-1.0039 0.53906-1.5938-0.28906-0.58984-1.0039-0.83203-1.5938-0.53906-0.66797 0.33203-1.4609 0.63672-2.3633 0.91016-0.92578 0.28125-1.9688 0.53125-3.1133 0.74219-0.64453 0.11719-1.0742 0.73828-0.95703 1.3828 0.125 0.64844 0.74609 1.0742 1.3906 0.95703zm0 9.6289c-0.64453 0.11719-1.2656-0.30859-1.3828-0.95703-0.11719-0.64453 0.30859-1.2656 0.95703-1.3828 1.1445-0.21484 2.1875-0.46484 3.1133-0.74219 0.90234-0.27344 1.6953-0.57812 2.3633-0.91016 0.58984-0.28906 1.3047-0.050782 1.5938 0.53906 0.28906 0.58984 0.050782 1.3047-0.53906 1.5938-0.76953 0.38281-1.6836 0.73438-2.7266 1.0508-1.0234 0.30859-2.1562 0.57812-3.3789 0.80859zm-21.75-13.816c-1.0273 0-1.8594 0.83203-1.8594 1.8594s0.83203 1.8594 1.8594 1.8594 1.8594-0.83203 1.8594-1.8594-0.83203-1.8594-1.8594-1.8594zm5.4023 1.6172c-1.0273 0-1.8594 0.83203-1.8594 1.8594 0 1.0273 0.83203 1.8594 1.8594 1.8594 1.0273 0 1.8594-0.83203 1.8594-1.8594 0.003906-1.0234-0.82812-1.8594-1.8594-1.8594zm-5.4023 8.2812c1.0273 0 1.8594 0.83203 1.8594 1.8594 0 1.0273-0.83203 1.8594-1.8594 1.8594s-1.8594-0.83203-1.8594-1.8594c-0.003906-1.0273 0.83203-1.8594 1.8594-1.8594zm5.4023 1.6211c1.0273 0 1.8594 0.83203 1.8594 1.8594 0 1.0273-0.83203 1.8594-1.8594 1.8594-1.0273 0-1.8594-0.83203-1.8594-1.8594 0-1.0273 0.83594-1.8594 1.8594-1.8594zm-31.535-16.961c-0.64453 0.11719-1.2656-0.30859-1.3828-0.95703-0.11719-0.64453 0.30859-1.2656 0.95703-1.3828 1.1445-0.21484 2.1875-0.46484 3.1133-0.74219 0.90234-0.27344 1.6953-0.57813 2.3633-0.91016 0.58984-0.28906 1.3047-0.050781 1.5938 0.53906 0.28906 0.58984 0.050781 1.3047-0.53906 1.5938-0.76953 0.38281-1.6836 0.73438-2.7266 1.0508-1.0234 0.30859-2.1562 0.58203-3.3789 0.80859zm-10.113-21.98v10.871c0 0.66016 0.53516 1.1953 1.1953 1.1953s1.1953-0.53516 1.1953-1.1953v-10.871c0-0.66016-0.53516-1.1953-1.1953-1.1953-0.66016 0.003906-1.1953 0.53516-1.1953 1.1953zm2.3867 6.8281c-0.39453-0.007813-0.79297-0.011719-1.1953-0.011719-0.40234 0-0.80078 0.003906-1.1953 0.011719-4.293 0.085937-8.1367 0.63281-10.965 1.4727-2.668 0.79297-4.3164 1.7109-4.3164 2.5703 0 0.85547 1.6484 1.7773 4.3164 2.5703 3.0898 0.91797 7.3867 1.4883 12.16 1.4883 1.7891 0 3.4844-0.074219 5.0469-0.21875 1.6211-0.14844 3.1602-0.36719 4.5742-0.64844 0.64453-0.12891 1.2734 0.28906 1.4023 0.9375 0.12891 0.64453-0.28906 1.2734-0.9375 1.4023-1.4453 0.28906-3.0703 0.51953-4.8242 0.67969-1.6992 0.15234-3.4648 0.23828-5.2617 0.23828-4.9883 0-9.5273-0.60547-12.832-1.5898-1.4453-0.42969-2.6797-0.94922-3.6484-1.543v6.6641c0 0.85938 1.6484 1.7773 4.3164 2.5703 3.0898 0.91797 7.3867 1.4844 12.16 1.4844 2.8984 0 5.6055-0.20703 7.9688-0.57031 2.4336-0.375 4.5117-0.91797 6.0508-1.5703 0.89063-0.37891 1.5781-0.78125 2.0234-1.2031 0.28125-0.26562 0.43359-0.50781 0.43359-0.71094v-6.6367c-0.88281 0.53125-2 1.0078-3.3125 1.418-0.62891 0.19531-1.2969-0.15625-1.4922-0.78516-0.19531-0.62891 0.15625-1.2969 0.78516-1.4922 1.4102-0.44141 2.5234-0.94531 3.2539-1.4883 0.49219-0.36719 0.76562-0.70313 0.76953-0.98828v-0.003906c0-0.85547-1.6484-1.7773-4.3164-2.5703-2.8281-0.84375-6.6719-1.3906-10.965-1.4766zm15.285 27.324c-0.22656 0.13672-0.47266 0.27344-0.73047 0.40234-0.011719 0.007812-0.023438 0.011718-0.035157 0.019531-1.668 0.83203-4.0195 1.5195-6.8047 1.9883-2.6445 0.44531-5.6836 0.69922-8.9141 0.69922-4.9883 0-9.5273-0.60547-12.832-1.5898-1.4453-0.42969-2.6797-0.94922-3.6484-1.543v6.6641c0 0.85938 1.6484 1.7773 4.3164 2.5703 3.1016 0.91406 7.4023 1.4805 12.172 1.4805 4.7695 0 9.0703-0.56641 12.16-1.4844 2.668-0.79297 4.3164-1.7109 4.3164-2.5703zm-1.8242-1.7188c-1.4688 0.73047-3.5859 1.3438-6.1328 1.7734-2.5 0.42188-5.4102 0.66406-8.5195 0.66406-4.7695 0-9.0703-0.56641-12.16-1.4844-2.668-0.79297-4.3164-1.7109-4.3164-2.5703v-6.6641c0.96484 0.59375 2.1992 1.1133 3.6484 1.543 3.3047 0.98047 7.8438 1.5898 12.832 1.5898 2.9805 0 5.8164-0.21875 8.332-0.60938 2.6289-0.40625 4.8945-1.0039 6.6094-1.7305 0.011719-0.003906 0.023438-0.007812 0.035156-0.015624 0.55469-0.23828 1.0586-0.48828 1.5-0.75781v6.6406c0 0.17188-0.10547 0.37109-0.30859 0.58594-0.32422 0.35156-0.83594 0.69922-1.5195 1.0352zm-27.484-14.914c1.0273 0 1.8594 0.83203 1.8594 1.8594s-0.83203 1.8594-1.8594 1.8594c-1.0273 0-1.8594-0.83203-1.8594-1.8594-0.003907-1.0273 0.82812-1.8594 1.8594-1.8594zm5.4023 1.6211c1.0273 0 1.8594 0.83203 1.8594 1.8594s-0.83203 1.8594-1.8594 1.8594-1.8594-0.83203-1.8594-1.8594 0.83203-1.8594 1.8594-1.8594zm16.348 12.469c1.2227-0.22656 2.3555-0.5 3.3711-0.80859 1.0391-0.31641 1.957-0.66797 2.7266-1.0508 0.58984-0.28906 0.83203-1.0039 0.53906-1.5938-0.28906-0.58984-1.0039-0.83203-1.5938-0.53906-0.66797 0.33203-1.4609 0.63672-2.3633 0.91016-0.92578 0.28125-1.9688 0.53125-3.1133 0.74219-0.64844 0.11719-1.0742 0.73828-0.95703 1.3828 0.125 0.64844 0.74609 1.0742 1.3906 0.95703zm0 9.6289c-0.64453 0.11719-1.2656-0.30859-1.3828-0.95703-0.11719-0.64453 0.30859-1.2656 0.95703-1.3828 1.1445-0.21484 2.1875-0.46484 3.1133-0.74219 0.90234-0.27344 1.6953-0.57812 2.3633-0.91016 0.58984-0.28906 1.3047-0.050782 1.5938 0.53906 0.28906 0.58984 0.050781 1.3047-0.53906 1.5938-0.76953 0.38281-1.6836 0.73438-2.7266 1.0508-1.0234 0.30859-2.1562 0.57812-3.3789 0.80859zm-21.75-13.816c-1.0273 0-1.8594 0.83203-1.8594 1.8594s0.83203 1.8594 1.8594 1.8594c1.0273 0 1.8594-0.83203 1.8594-1.8594s-0.83203-1.8594-1.8594-1.8594zm5.4023 1.6172c-1.0273 0-1.8594 0.83203-1.8594 1.8594 0 1.0273 0.83203 1.8594 1.8594 1.8594s1.8594-0.83203 1.8594-1.8594c0-1.0234-0.83203-1.8594-1.8594-1.8594zm-5.4023 8.2812c1.0273 0 1.8594 0.83203 1.8594 1.8594 0 1.0273-0.83203 1.8594-1.8594 1.8594-1.0273 0-1.8594-0.83203-1.8594-1.8594-0.003907-1.0273 0.82812-1.8594 1.8594-1.8594zm5.4023 1.6211c1.0273 0 1.8594 0.83203 1.8594 1.8594 0 1.0273-0.83203 1.8594-1.8594 1.8594s-1.8594-0.83203-1.8594-1.8594c0-1.0273 0.83203-1.8594 1.8594-1.8594zm48.359-43.926h8.0078c15.195 0 16.559-23.023 1.043-24.355 2.4492-21.371-30.266-27.273-37.602-7.4141-5.082-6.4961-16.691-0.4375-14.34 7.4141-6.2266 0.53516-11.156 5.7969-11.156 12.156 0 6.7109 5.7617 12.152 12.473 12.16z" fill-rule="evenodd"/>
</svg>