<svg xmlns="http://www.w3.org/2000/svg" version="1.1" viewBox="-5.0 -10.0 110.0 135.0">
 <path d="m76.199 29.797c-0.38281-9.7422-8.4258-17.555-18.266-17.555-7.2734 0-13.781 4.2852-16.695 10.828-1.8359-0.88281-3.8477-1.3398-5.9102-1.3398-6.1758 0-11.531 4.1211-13.172 9.9648-9.4727 0.09375-17.152 7.832-17.152 17.328 0 9.5547 7.7734 17.328 17.328 17.328h5.0547v-9.0312c-2.0195-0.79687-3.4492-2.7695-3.4492-5.0664v-7.6641c0-3.0078 2.4453-5.4531 5.4492-5.4531h41.238c3.0078 0 5.4531 2.4453 5.4531 5.4531v7.6641c0 2.3008-1.4297 4.2695-3.4531 5.0664v9.0312h4.1016c10.078 0 18.277-8.1992 18.277-18.277 0-10.254-8.4805-18.566-18.801-18.273zm-8.4961 3.2812c-0.085937 0.015625-0.17188 0.023437-0.25391 0.023437-0.69141 0-1.3047-0.49609-1.4297-1.1992-0.67969-3.8594-3.5547-6.8086-7.332-7.5039-3.2305-0.59766-5.75-0.015626-7.6914 1.7773-0.58984 0.54297-1.5078 0.50781-2.0508-0.082031-0.54297-0.58984-0.50781-1.5078 0.082032-2.0508 2.625-2.4258 6.0547-3.2656 10.188-2.5 4.9766 0.92188 8.7695 4.7891 9.6641 9.8594 0.14062 0.78906-0.38672 1.543-1.1758 1.6797zm5.4688 19.168c0 1.4062-1.1445 2.5469-2.5508 2.5469h-41.238c-1.4062 0-2.5469-1.1445-2.5469-2.5469v-7.6641c0-1.4062 1.1445-2.5508 2.5469-2.5508h41.238c1.4062 0 2.5508 1.1445 2.5508 2.5508zm-42.887 33.82c0 0.93359 0.76172 1.6914 1.6914 1.6914h36.047c0.93359 0 1.6914-0.75781 1.6914-1.6914v-28.367l-39.43-0.003907zm8.582-21.363c0-1.668 1.3555-3.0234 3.0234-3.0234h16.219c1.668 0 3.0234 1.3555 3.0234 3.0234v3.0156c0 1.668-1.3555 3.0234-3.0234 3.0234h-16.219c-1.668 0-3.0234-1.3555-3.0234-3.0234zm0 12.688c0-1.668 1.3555-3.0234 3.0234-3.0234h16.219c1.668 0 3.0234 1.3555 3.0234 3.0234v3.0156c0 1.668-1.3555 3.0234-3.0234 3.0234h-16.219c-1.668 0-3.0234-1.3555-3.0234-3.0234zm2.9023 3.0156v-3.0156c0-0.0625 0.058594-0.12109 0.12109-0.12109h16.219c0.0625 0 0.12109 0.054688 0.12109 0.12109v3.0156c0 0.0625-0.058594 0.12109-0.12109 0.12109h-16.219c-0.0625 0-0.12109-0.058594-0.12109-0.12109zm0-12.688v-3.0156c0-0.0625 0.058594-0.12109 0.12109-0.12109h16.219c0.0625 0 0.12109 0.058594 0.12109 0.12109v3.0156c0 0.0625-0.058594 0.12109-0.12109 0.12109h-16.219c-0.0625 0-0.12109-0.058594-0.12109-0.12109z"/>
</svg>